<?xml version="1.0" encoding="utf-8"?><svg viewBox="0 0 204 32" xmlns="http://www.w3.org/2000/svg" xmlns:xlink="http://www.w3.org/1999/xlink"><style>:root>svg{display:none}:root>svg:target{display:block}</style><svg viewBox="0 0 25 24" id="burger-btn" xmlns="http://www.w3.org/2000/svg"><g clip-path="url(#aclip0_4_95)"><path d="M21.163 3.974H3.392v1.974h17.771V3.974zm0 6.91H9.315v1.976h11.848v-1.975zm0 6.912H3.392v1.975h17.771v-1.975z"/></g><defs><clipPath id="aclip0_4_95"><path transform="matrix(-1 0 0 1 24.125 .024)" d="M0 0h23.696v23.696H0z"/></clipPath></defs></svg><svg viewBox="0 0 24 24" id="eyes" xmlns="http://www.w3.org/2000/svg"><g clip-path="url(#bclip0_4_143)"><path d="M12 3c5.392 0 9.878 3.88 10.819 9-.94 5.12-5.427 9-10.819 9-5.392 0-9.878-3.88-10.82-9C2.122 6.88 6.609 3 12 3zm0 16a9.004 9.004 0 008.777-7 9.005 9.005 0 00-17.554 0A9.005 9.005 0 0012 19zm0-2.5a4.5 4.5 0 110-9 4.5 4.5 0 010 9zm0-2a2.5 2.5 0 100-5 2.5 2.5 0 000 5z"/></g><defs><clipPath id="bclip0_4_143"><path d="M0 0h24v24H0z"/></clipPath></defs></svg><svg viewBox="0 0 31 32" id="fb" xmlns="http://www.w3.org/2000/svg"><g clip-path="url(#cclip0_4_169)"><path d="M18.38 17.875h3.153l1.261-5.044h-4.413v-2.523c0-1.299 0-2.522 2.522-2.522h1.891V3.55c-.41-.054-1.963-.177-3.603-.177-3.423 0-5.855 2.09-5.855 5.927v3.532H9.553v5.044h3.783v10.72h5.045v-10.72z"/></g><defs><linearGradient id="cpaint0_linear_4_169" x1="9.553" y1="3.372" x2="29.681" y2="11.463" gradientUnits="userSpaceOnUse"><stop stop-color="#7A7A7A"/><stop offset="1" stop-color="#494949"/></linearGradient><clipPath id="cclip0_4_169"><path transform="translate(.725 .85)" d="M0 0h30.267v30.267H0z"/></clipPath></defs></svg><svg viewBox="0 0 31 31" id="inst" xmlns="http://www.w3.org/2000/svg"><g clip-path="url(#dclip0_4_172)"><path d="M15.858 3.172c3.427 0 3.854.013 5.199.076 1.343.063 2.257.273 3.062.586a6.15 6.15 0 012.234 1.454 6.19 6.19 0 011.454 2.235c.312.803.524 1.719.587 3.062.059 1.344.075 1.772.075 5.198 0 3.427-.012 3.854-.075 5.199-.063 1.343-.275 2.257-.587 3.062a6.16 6.16 0 01-1.454 2.234 6.199 6.199 0 01-2.234 1.454c-.804.312-1.72.524-3.062.587-1.345.059-1.772.075-5.199.075-3.426 0-3.854-.012-5.198-.075-1.343-.063-2.257-.275-3.062-.587a6.167 6.167 0 01-2.235-1.454 6.186 6.186 0 01-1.454-2.234c-.312-.804-.523-1.72-.586-3.062-.06-1.345-.076-1.772-.076-5.199 0-3.426.013-3.854.076-5.198.063-1.344.274-2.257.586-3.062a6.154 6.154 0 011.454-2.235 6.175 6.175 0 012.235-1.454c.805-.313 1.718-.523 3.062-.586 1.344-.06 1.772-.076 5.198-.076zm0 6.306a6.306 6.306 0 100 12.611 6.306 6.306 0 000-12.611zm8.197-.316a1.576 1.576 0 10-3.152 0 1.576 1.576 0 003.152 0zM15.858 12a3.783 3.783 0 110 7.567 3.783 3.783 0 010-7.567z"/></g><defs><linearGradient id="dpaint0_linear_4_172" x1="3.247" y1="3.172" x2="31.323" y2="24.668" gradientUnits="userSpaceOnUse"><stop stop-color="#7A7A7A"/><stop offset="1" stop-color="#494949"/></linearGradient><clipPath id="dclip0_4_172"><path transform="translate(.725 .65)" d="M0 0h30.267v30.267H0z"/></clipPath></defs></svg><svg viewBox="0 0 204 2" id="line" xmlns="http://www.w3.org/2000/svg"><path stroke="url(#epaint0_linear_4_117)" stroke-width=".946" d="M.25 1.231h203.354"/><defs><linearGradient id="epaint0_linear_4_117" x1=".25" y1="1.704" x2="203.604" y2="1.704" gradientUnits="userSpaceOnUse"><stop stop-color="#fff"/><stop offset="1" stop-color="#fff" stop-opacity="0"/></linearGradient></defs></svg><svg viewBox="0 0 31 31" id="tvit" xmlns="http://www.w3.org/2000/svg"><g clip-path="url(#fclip0_4_175)"><path d="M28.674 7.583c-.963.426-1.984.705-3.03.83a5.292 5.292 0 002.321-2.919 10.54 10.54 0 01-3.35 1.28 5.274 5.274 0 00-8.986 4.81 14.975 14.975 0 01-10.87-5.51 5.256 5.256 0 00-.714 2.651c0 1.829.93 3.444 2.345 4.39a5.256 5.256 0 01-2.388-.66v.066a5.278 5.278 0 004.23 5.172 5.309 5.309 0 01-2.383.09 5.278 5.278 0 004.927 3.665 10.587 10.587 0 01-7.807 2.184 14.918 14.918 0 008.084 2.37c9.701 0 15.007-8.037 15.007-15.007 0-.227-.006-.456-.017-.68a10.716 10.716 0 002.632-2.73l-.001-.002z"/></g><defs><linearGradient id="fpaint0_linear_4_175" x1="2.969" y1="5.102" x2="27.025" y2="27.755" gradientUnits="userSpaceOnUse"><stop stop-color="#7A7A7A"/><stop offset="1" stop-color="#494949"/></linearGradient><clipPath id="fclip0_4_175"><path transform="translate(.725 .45)" d="M0 0h30.267v30.267H0z"/></clipPath></defs></svg><svg viewBox="0 0 24 24" id="wallet" xmlns="http://www.w3.org/2000/svg"><path d="M2 9h19a1 1 0 011 1v10a1 1 0 01-1 1H3a1 1 0 01-1-1V9zm1-6h15v4H2V4a1 1 0 011-1zm12 11v2h3v-2h-3z"/></svg></svg>